<svg width="302" height="201" viewBox="0 0 302 201" fill="none" xmlns="http://www.w3.org/2000/svg">
<path d="M5.8 30.368H34.12C43.528 30.368 48.232 34.336 48.232 42.272V80.096C48.232 88.032 43.528 92 34.12 92H5.8V30.368ZM31.432 78.848V43.52C31.432 42.112 30.632 41.408 29.032 41.408H22.6V80.96H29.032C30.632 80.96 31.432 80.256 31.432 78.848ZM68.8045 44.096H80.5165C89.9245 44.096 94.6285 48.064 94.6285 56V72.32H70.1485V78.656C70.1485 80.064 70.9485 80.768 72.5485 80.768H76.7725C78.3725 80.768 79.1725 80 79.1725 78.464V75.776H94.6285V80.096C94.6285 88.032 89.9245 92 80.5165 92H68.8045C59.3965 92 54.6925 88.032 54.6925 80.096V56C54.6925 48.064 59.3965 44.096 68.8045 44.096ZM70.1485 63.488H79.1725V57.44C79.1725 56.032 78.3725 55.328 76.7725 55.328H72.5485C70.9485 55.328 70.1485 56.032 70.1485 57.44V63.488ZM113.224 44.096L119.08 74.816L124.84 44.096H141.064L128.776 92H109.288L97 44.096H113.224Z" fill="white"/>
<path d="M3.6 120.776H24.84C31.896 120.776 35.424 123.752 35.424 129.704V158.072C35.424 164.024 31.896 167 24.84 167H3.6V120.776ZM22.824 157.136V130.64C22.824 129.584 22.224 129.056 21.024 129.056H16.2V158.72H21.024C22.224 158.72 22.824 158.192 22.824 157.136ZM57.6934 131.072H69.7174V167H57.4774V163.112C56.5654 165.704 54.4534 167 51.1414 167H49.8454C43.4614 167 40.2694 164.024 40.2694 158.072V140C40.2694 134.048 43.4614 131.072 49.8454 131.072H51.1414C54.8374 131.072 57.0214 132.608 57.6934 135.68V131.072ZM54.3094 158H55.5334C56.8294 158 57.4774 157.28 57.4774 155.84V142.232C57.4774 140.792 56.8294 140.072 55.5334 140.072H54.3094C53.1094 140.072 52.5094 140.6 52.5094 141.656V156.416C52.5094 157.472 53.1094 158 54.3094 158ZM90.9225 157.496V154.616C90.9225 153.56 90.3225 153.032 89.1225 153.032H84.7305C77.8185 153.032 74.3625 150.08 74.3625 144.176V140C74.3625 134.048 77.8905 131.072 84.9465 131.072H91.6425C98.6985 131.072 102.227 134.048 102.227 140V143.024H90.5625V140.576C90.5625 139.52 89.9625 138.992 88.7625 138.992H88.0425C86.8425 138.992 86.2425 139.52 86.2425 140.576V143.744C86.2425 144.8 86.8425 145.328 88.0425 145.328H92.4345C96.1305 145.328 98.7705 146.096 100.355 147.632C101.987 149.12 102.803 151.28 102.803 154.112V158.072C102.803 164.024 99.2745 167 92.2185 167H85.1625C78.1065 167 74.5785 164.024 74.5785 158.072V155.12H86.4585V157.496C86.4585 158.552 87.0585 159.08 88.2585 159.08H89.1225C90.3225 159.08 90.9225 158.552 90.9225 157.496ZM126.081 131.072H127.377C133.761 131.072 136.953 134.048 136.953 140V167H124.713V141.656C124.713 140.6 124.113 140.072 122.913 140.072H121.689C120.393 140.072 119.745 140.792 119.745 142.232V167H107.505V118.832H119.745V134.96C120.657 132.368 122.769 131.072 126.081 131.072ZM160.956 131.072H162.252C168.636 131.072 171.828 134.048 171.828 140V158.072C171.828 164.024 168.636 167 162.252 167H160.956C157.26 167 155.076 165.464 154.404 162.392V167H142.38V118.832H154.62V134.96C155.532 132.368 157.644 131.072 160.956 131.072ZM159.588 156.416V141.656C159.588 140.6 158.988 140.072 157.788 140.072H156.564C155.268 140.072 154.62 140.792 154.62 142.232V155.84C154.62 157.28 155.268 158 156.564 158H157.788C158.988 158 159.588 157.472 159.588 156.416ZM186.697 131.072H195.841C199.489 131.072 202.105 131.84 203.689 133.376C205.273 134.912 206.065 137.12 206.065 140V158.072C206.065 160.952 205.273 163.16 203.689 164.696C202.105 166.232 199.489 167 195.841 167H186.697C183.049 167 180.433 166.232 178.849 164.696C177.265 163.16 176.473 160.952 176.473 158.072V140C176.473 137.12 177.265 134.912 178.849 133.376C180.433 131.84 183.049 131.072 186.697 131.072ZM194.041 156.92V141.152C194.041 140.096 193.441 139.568 192.241 139.568H190.297C189.097 139.568 188.497 140.096 188.497 141.152V156.92C188.497 157.976 189.097 158.504 190.297 158.504H192.241C193.441 158.504 194.041 157.976 194.041 156.92ZM228.201 131.072H240.225V167H227.985V163.112C227.073 165.704 224.961 167 221.649 167H220.353C213.969 167 210.777 164.024 210.777 158.072V140C210.777 134.048 213.969 131.072 220.353 131.072H221.649C225.345 131.072 227.529 132.608 228.201 135.68V131.072ZM224.817 158H226.041C227.337 158 227.985 157.28 227.985 155.84V142.232C227.985 140.792 227.337 140.072 226.041 140.072H224.817C223.617 140.072 223.017 140.6 223.017 141.656V156.416C223.017 157.472 223.617 158 224.817 158ZM265.75 130.712H266.83V141.368H262.726C259.702 141.368 258.19 143 258.19 146.264V167H245.95V131.072H257.974V136.616C258.358 134.792 259.222 133.352 260.566 132.296C261.91 131.24 263.638 130.712 265.75 130.712ZM286.556 118.832H298.796V167H286.772V162.392C286.1 165.464 283.916 167 280.22 167H278.924C272.54 167 269.348 164.024 269.348 158.072V140C269.348 134.048 272.54 131.072 278.924 131.072H280.22C283.532 131.072 285.644 132.368 286.556 134.96V118.832ZM283.388 158H284.612C285.908 158 286.556 157.28 286.556 155.84V142.232C286.556 140.792 285.908 140.072 284.612 140.072H283.388C282.188 140.072 281.588 140.6 281.588 141.656V156.416C281.588 157.472 282.188 158 283.388 158Z" fill="white"/>
</svg>
